<svg xmlns="http://www.w3.org/2000/svg" viewBox="0 0 980 600" width="980" height="600" font-family="Caveat, 'Comic Sans MS', 'Comic Sans', cursive"><rect x="2" y="2" width="976" height="596" rx="16" fill="#fdfdf8" stroke="#e7e3d5" stroke-width="2"></rect><text x="490" y="46" font-family="Caveat, 'Comic Sans MS', 'Comic Sans', cursive" font-size="30" fill="#1e1e1e" text-anchor="middle" font-weight="700">A crash in one worktree's VM can't escape it</text><g><path d="M38.236245398037134 71.8016086505726 L939.4511717898771 69.91346915829926 L938.6697402639314 560.6322802351788 L37.99923231434077 560.9430455433205" stroke="none" stroke-width="0" fill="#ffffff"></path><path d="M40.62915508694947 69.38520213775337 C220.2568978060782 69.07894904444366, 400.8980140145868 69.15520165989548, 939.6790018624812 70.13890383176505 M40.38045867409557 70.40065726730973 C251.7506796147302 66.26655160157384, 463.18559747766705 66.14933614818753, 939.8309884532914 70.12362882707268 M940.4141529441168 70.34655266420614 C942.935823215225 263.0398733986129, 942.755677957375 455.56906992732314, 939.6773950037091 559.283780042137 M939.667510063625 69.63704963853793 C938.6145319330483 242.89998732094548, 938.2748891318525 415.4439163070344, 940.2179702654391 559.9425710148784 M939.8155597967655 560.7269496648759 C604.5497559070587 565.7147190121337, 270.3363733582944 564.8440595487282, 40.08844993777573 559.8069463723153 M939.833815424107 560.1843370697275 C638.0401214376465 556.2890583236516, 337.2631238852069 555.8551707358658, 40.14451663579792 560.2025266012922 M40.033615677932445 560.4142014769608 C40.90942013058207 385.7255820920571, 39.50861928435856 213.10289497154963, 39.31709935287275 69.41943292075689 M40.182171166918806 560.4493047376029 C37.343034600513484 461.66948443133356, 37.144423187089686 362.6429865915508, 40.388673373064655 70.39792320406357" stroke="#1e1e1e" stroke-width="2.4" fill="none"></path></g><text x="64" y="100" font-family="Caveat, 'Comic Sans MS', 'Comic Sans', cursive" font-size="22" fill="#555" text-anchor="start">your Mac  ·  host</text><g><path d="M77.99185468582436 129.8175394278951 L462.4457239243202 127.53955085994676 L461.65956048993394 338.64440960111097 L79.29585522739217 340.22768144728616" stroke="none" stroke-width="0" fill="#ffc9c9"></path><path d="M78.50202414326498 130.18116954376234 C156.99967173786962 129.29942328443533, 232.2497867715297 128.72942506373457, 459.50092575292047 130.1792692229381 M80.28349375309824 129.66745580526134 C173.809522726117 133.04204956286378, 268.6368846767287 133.06970358237788, 459.85911672871777 129.85686193461967 M460.29898707459057 129.18503756240767 C459.9672037699091 209.21171861891415, 462.752106044657 286.0744537975396, 461.32661833349624 341.9251061984381 M460.27739331039965 129.13352630056738 C460.96947675603184 179.5563049725469, 462.6192282568322 229.88384872049852, 460.6011049375107 339.33433857866083 M458.5817435695914 339.6383477480082 C336.1627816617315 343.0495660411367, 210.35063893090316 343.4890156675639, 78.9242810804596 339.6445348650521 M460.14101984440936 340.7361594846702 C348.3335724354408 341.26557052445486, 236.97091622931538 341.4899878735941, 79.78847568920098 340.6589934202867 M80.95762900507447 337.8901939496661 C80.78309963821918 293.064914874497, 80.36231369064465 246.09881856005768, 80.47235562630964 128.534047592172 M80.63718957242352 341.0629304560502 C76.69348437914122 290.0858813018415, 77.38593340853747 238.57643245752215, 79.17803072379893 130.82658849788896" stroke="#1e1e1e" stroke-width="2.6" fill="none"></path></g><text x="100" y="162" font-family="Caveat, 'Comic Sans MS', 'Comic Sans', cursive" font-size="22" fill="#1e1e1e" text-anchor="start" font-weight="700">VM  wt-feature-a</text><text x="100" y="185" font-family="Caveat, 'Comic Sans MS', 'Comic Sans', cursive" font-size="15" fill="#7a2b2b" text-anchor="start">own kernel + Docker daemon</text><g><path d="M112.18976017646492 205.71347813792528 L197.50319579057395 205.36400679536163 L197.77201890163124 236.12440064139665 L111.94336085729302 234.97194239087403" stroke="none" stroke-width="0" fill="#a5d8ff"></path><path d="M109.68969377465547 203.80819639377296 C127.65972242951393 207.20350621124282, 145.7391157846898 204.1234104075052, 194.01137633509933 206.9470715802163 M109.49403641428799 206.0317540952936 C130.88981488738207 204.41635153460578, 150.92670873980967 205.41715526151734, 195.54764854516833 204.54292382095008 M196.11124005503953 206.66869681291283 C194.47039228581264 213.55059413686394, 195.2910766591914 225.35805718041956, 195.68807589001955 234.91128713302314 M195.92336442079394 203.92395614478738 C196.49210640220718 211.67230003606528, 197.2686448040493 219.91367466617376, 195.12693592514842 234.5240428397432 M197.7424531597644 234.55647498778998 C173.76914624944328 236.12769904859886, 148.97143939100204 235.7913845253788, 111.2030677575618 237.08372526578606 M196.7669233461842 235.75684365723282 C172.5457142295316 236.58050954051242, 149.2565262539312 236.42218507833704, 109.08534069862216 235.2808631906286 M110.42006404586137 236.7115577738732 C109.44862035671994 229.03504627794027, 109.47831885973737 222.08309952504933, 109.72941101975739 206.99933470897378 M109.49257818069309 236.04136023614555 C109.95099746727571 224.9303853219375, 111.25079369687663 216.20454319734125, 110.24443879332394 205.70499253962188" stroke="#1e1e1e" stroke-width="1.8" fill="none"></path></g><text x="153" y="226" font-family="Caveat, 'Comic Sans MS', 'Comic Sans', cursive" font-size="17" fill="#1e1e1e" text-anchor="middle">postgres</text><g><path d="M204.22941884901374 202.87726074252276 L292.4533023169264 205.15614035520701 L291.8510861983523 236.38188066277652 L206.76147288586944 234.45767380390316" stroke="none" stroke-width="0" fill="#ffc9c9"></path><path d="M204.43268356714398 207.06846960689873 C221.10837984383105 204.69019641828424, 238.92375297751278 202.827430754422, 291.338422212936 205.17864063289016 M205.88050429476425 205.2228125651367 C228.10947538362817 204.9640565857593, 251.79426569780338 205.33822043690122, 292.0092368300073 204.27102128164842 M291.6016147235408 206.94432004000993 C289.72787202867306 213.2289472747594, 291.3092458811645 226.8033257531002, 291.01767841968683 236.1549967041239 M291.1508099014871 204.14475468294694 C291.34177661561404 213.87804337060078, 291.0441996308509 225.14746382171288, 292.67450045598673 236.01151093440131 M292.7005349317566 236.52169082071632 C267.35478445775806 233.70114235021882, 242.62382070403544 237.16695067622476, 207.0231700161472 234.43984944131225 M292.82915412439036 234.49873844580725 C269.420571370516 234.5978998585295, 249.1750771290623 234.14096458094826, 205.01818538857623 234.22689196364954 M207.82739951405674 234.20194303300232 C204.7621743686106 226.94954782053827, 207.28619615506193 219.2725361758843, 204.18039138708264 203.47264586593957 M206.8323307867162 236.0394055773504 C206.37543071618492 226.39806483266875, 206.03188682010585 218.48802797058596, 205.62925341976808 205.69182562427596" stroke="#1e1e1e" stroke-width="1.8" fill="none"></path></g><text x="249" y="226" font-family="Caveat, 'Comic Sans MS', 'Comic Sans', cursive" font-size="17" fill="#1e1e1e" text-anchor="middle">redis</text><g><path d="M108.66907752156257 244.44104334712029 L195.4034088432789 244.94827391505243 L193.9301534950733 276.63936068415643 L109.57958491444587 273.9434052169323" stroke="none" stroke-width="0" fill="#b2f2bb"></path><path d="M111.57567335963249 245.9287428200245 C126.95703725814819 244.82568662532566, 144.50839017033576 244.18025110133885, 196.66546809077263 243.41020968556404 M110.26697217524051 244.41387103497982 C133.32913587987423 242.86296163691281, 158.461822655797 244.81048561228513, 196.47082511484624 243.99911874234675 M195.09198939204217 242.81994326710702 C197.3853517715335 257.30730041265485, 195.3274151031375 268.24859432578086, 194.34728094935417 272.99870627522466 M196.5782553821802 244.36555322110652 C196.391446829021 256.0837867051363, 195.01975445765257 268.18125297725203, 196.022064986825 275.2989790290594 M195.6586167037487 274.08690665364264 C168.94042266607283 275.67458565183875, 144.27620201706884 274.14251682707066, 110.84327227473258 276.19597361683844 M196.89138490259649 275.44063323438166 C176.49542851150036 275.2640901765466, 157.0936280041933 276.7085440835595, 108.95103007853031 275.3729207366705 M108.83473498225212 276.0923282921314 C108.07572838050126 264.8640493631363, 108.69407345038653 252.06197282671928, 111.03137175440789 244.34595702290534 M109.9720833927393 276.03745091855524 C109.87586396509408 267.8657443434, 110.08897994333505 260.77151274383067, 109.0140680462122 245.67865870893002" stroke="#1e1e1e" stroke-width="1.8" fill="none"></path></g><text x="153" y="266" font-family="Caveat, 'Comic Sans MS', 'Comic Sans', cursive" font-size="17" fill="#1e1e1e" text-anchor="middle">api</text><g><path d="M205.1087361941114 246.0048259517178 L290.35351536963134 244.7404074748978 L292.4092207917944 276.8968407055363 L204.3976969430223 273.4291366299614" stroke="none" stroke-width="0" fill="#ffec99"></path><path d="M206.31866315212102 244.78901603315026 C224.80569467246534 242.3123768323671, 242.09302736315877 242.8842714482557, 293.9925139686093 246.04177873823792 M206.65344005571677 245.80492950482295 C232.74879637612028 245.61066668806637, 259.32937961379065 244.73155078766905, 292.9324133996852 245.9272162030451 M290.58236406054345 243.0955664942041 C292.6428315143939 256.98565355055035, 291.34558432511056 269.69386289846153, 294.0768834790215 274.24241584632546 M291.8057008628733 244.5863517592661 C292.1651170424279 252.2895300396718, 291.91930928445424 261.41504213279114, 291.36962951766327 274.5864471237175 M290.61669847574086 276.052122486569 C262.5260608743876 277.6480289534587, 237.92858333010224 275.51808297791666, 206.66337453331798 273.55209779236463 M292.9536156808026 274.1825280229561 C273.3702856524847 275.48148049456364, 257.0121788793243 274.42732358617076, 207.08387476848438 274.31894950969144 M206.2420704504475 273.58271355126055 C207.78928239239193 268.7785509057343, 206.5019507457111 261.25140947755426, 205.48235212173313 245.21926817987114 M205.1118359987624 276.0354962597601 C206.30029721400328 269.33342385413124, 204.87007306656426 263.0549975170754, 206.59888267265632 245.66549179358407" stroke="#1e1e1e" stroke-width="1.8" fill="none"></path></g><text x="249" y="266" font-family="Caveat, 'Comic Sans MS', 'Comic Sans', cursive" font-size="17" fill="#1e1e1e" text-anchor="middle">ui</text><polygon points="420,138 406,164 422,164 408,194 440,156 425,156 438,138" fill="#ffd43b" stroke="#c92a2a" stroke-width="2"></polygon><g><path d="M141.14864549040794 208.46646748185157 C146.75559106926917 212.96487039141655, 151.62575019757747 217.69264327399733, 163.1074564874172 231.83210411667824 M141.46405296623706 209.10073322951794 C148.98981814405917 215.9102014144659, 155.6222574444771 222.94524558091163, 164.34203424751757 230.53516192138196" stroke="#c92a2a" stroke-width="3" fill="none"></path></g><g><path d="M164.86300355903805 207.8447983253747 C158.57475368485453 212.40389744298457, 154.4847675294861 217.7957674865976, 141.83129969350995 230.86750541813672 M163.67485362831502 208.6594923948869 C156.43052832034678 216.34835064441114, 150.02273056150673 223.51133286293748, 142.59380967561157 231.58685144539922" stroke="#c92a2a" stroke-width="3" fill="none"></path></g><g><path d="M237.14864549040794 208.46646748185157 C242.75559106926917 212.96487039141655, 247.62575019757747 217.69264327399733, 259.1074564874172 231.83210411667824 M237.46405296623706 209.10073322951794 C244.98981814405917 215.9102014144659, 251.6222574444771 222.94524558091163, 260.3420342475176 230.53516192138196" stroke="#c92a2a" stroke-width="3" fill="none"></path></g><g><path d="M260.863003559038 207.8447983253747 C254.57475368485456 212.40389744298457, 250.48476752948613 217.7957674865976, 237.83129969350995 230.86750541813672 M259.674853628315 208.6594923948869 C252.4305283203468 216.34835064441114, 246.0227305615068 223.51133286293748, 238.59380967561157 231.58685144539922" stroke="#c92a2a" stroke-width="3" fill="none"></path></g><g><path d="M141.14864549040794 248.46646748185157 C146.75559106926917 252.96487039141655, 151.62575019757747 257.6926432739973, 163.1074564874172 271.83210411667824 M141.46405296623706 249.10073322951794 C148.98981814405917 255.9102014144659, 155.6222574444771 262.94524558091166, 164.34203424751757 270.5351619213819" stroke="#c92a2a" stroke-width="3" fill="none"></path></g><g><path d="M164.86300355903805 247.8447983253747 C158.57475368485453 252.40389744298457, 154.4847675294861 257.7957674865976, 141.83129969350995 270.8675054181367 M163.67485362831502 248.6594923948869 C156.43052832034678 256.34835064441114, 150.02273056150673 263.5113328629375, 142.59380967561157 271.58685144539925" stroke="#c92a2a" stroke-width="3" fill="none"></path></g><g><path d="M237.14864549040794 248.46646748185157 C242.75559106926917 252.96487039141655, 247.62575019757747 257.6926432739973, 259.1074564874172 271.83210411667824 M237.46405296623706 249.10073322951794 C244.98981814405917 255.9102014144659, 251.6222574444771 262.94524558091166, 260.3420342475176 270.5351619213819" stroke="#c92a2a" stroke-width="3" fill="none"></path></g><g><path d="M260.863003559038 247.8447983253747 C254.57475368485456 252.40389744298457, 250.48476752948613 257.7957674865976, 237.83129969350995 270.8675054181367 M259.674853628315 248.6594923948869 C252.4305283203468 256.34835064441114, 246.0227305615068 263.5113328629375, 238.59380967561157 271.58685144539925" stroke="#c92a2a" stroke-width="3" fill="none"></path></g><g><path d="M97.98797596478835 297.58779629832134 L400.51511626923457 300.17743222182617 L399.83077977085486 331.57031893497333 L100.86531009757891 329.38372023170814" stroke="none" stroke-width="0" fill="#ffa8a8"></path><path d="M98.69397302691509 301.7236322180923 C158.28889849270914 298.96646023528524, 218.83350373256346 297.41423877538045, 399.44871474796895 300.1488592093802 M99.9004255867328 300.1856671785674 C178.2270558266225 301.66392792653613, 257.7668036835638 301.9757144118307, 400.0076969454811 299.3925503178467 M399.54728945856914 302.20945459092036 C397.4180363962194 307.94964760309085, 399.2150521376869 321.9736488466151, 398.8837254769169 331.31249625468627 M399.03501125168987 299.0281303215306 C399.2520188813796 308.778496745741, 398.91386321687605 320.27446744660847, 400.766477790894 331.14944424363784 M400.5837477980085 331.2680076689618 C314.1939770355237 330.7494715932397, 228.316501060832 333.63749028711493, 100.85259594752345 329.5332329047928 M400.6909247096485 329.5823044430452 C323.34927863798686 328.4242982194745, 248.6433982795377 328.0435392451124, 99.1818650412848 329.35577785862773 M102.07659035688266 329.0931170829572 C98.59337996433024 322.042576901149, 101.46158653984313 314.5095180463977, 97.93226293986663 298.26437030220404 M100.94583043945022 331.18114270153455 C100.42662581384647 321.3572503866162, 100.03623502284753 313.5007488473784, 99.57869706791826 300.78616548213176" stroke="#1e1e1e" stroke-width="1.6" fill="none"></path></g><text x="250" y="321" font-family="Caveat, 'Comic Sans MS', 'Comic Sans', cursive" font-size="17" fill="#c92a2a" text-anchor="middle" font-weight="700">docker system prune  ·  OOM  ·  crash</text><g><path d="M77.98409724375233 360.3580531687476 L458.58450861414894 357.8153135837056 L458.0019990517758 539.4962282688357 L82.43476496776566 538.5397590161301" stroke="none" stroke-width="0" fill="#b2f2bb"></path><path d="M79.36090427970781 359.63948577591697 C155.2376805358407 358.5350726029452, 232.91621464917705 359.56489750538657, 459.596997898559 360.064311340022 M79.55357113700133 360.6363541912245 C184.67563960813317 360.71681771797216, 288.9815427021846 361.19934461321395, 460.15347789892513 360.64903401520985 M458.7560925097205 360.3415367170237 C458.3874999534804 415.2177499826066, 458.8287143212277 475.2435160703026, 461.2655724049546 540.4455595626496 M460.2559826232027 359.03720461879857 C462.75976680107414 397.6796457071323, 462.71575447060167 432.42111180652864, 460.8524383686017 540.5524907738436 M459.3737017311071 539.4367622699208 C366.50859753004727 542.2970765565051, 274.8751998174776 543.5835853509581, 79.4710844904211 539.5916871174827 M459.4896756486088 540.0802339938799 C379.5798259453844 543.3765145953644, 299.03850311437765 542.5290556103505, 80.37267277415428 539.7867312015122 M78.06903885910287 540.5747677548788 C80.38566544852219 477.0177173647098, 81.59845479032955 409.9192713103257, 80.32976711401716 358.18836072226986 M81.17029187153094 541.1589306697715 C82.68658278835937 482.39058947679587, 83.62187238736078 425.6597651161719, 80.08795418660156 360.63654144410975" stroke="#1e1e1e" stroke-width="2.6" fill="none"></path></g><text x="100" y="392" font-family="Caveat, 'Comic Sans MS', 'Comic Sans', cursive" font-size="22" fill="#1e1e1e" text-anchor="start" font-weight="700">VM  wt-feature-b</text><text x="100" y="415" font-family="Caveat, 'Comic Sans MS', 'Comic Sans', cursive" font-size="15" fill="#2b6a36" text-anchor="start">separate kernel + daemon  —  untouched</text><g><path d="M112.18293362744153 436.18913022987545 L194.10532631762325 435.6066779922694 L194.55336483605205 466.8740010689944 L110.30560142882169 463.4865706514567" stroke="none" stroke-width="0" fill="#a5d8ff"></path><path d="M110.94948962442577 433.01366065628827 C125.03287071585656 436.32291035207135, 146.63185964114965 435.589417345842, 194.15229389183224 436.7784526336938 M110.6233940238133 435.25292349215596 C134.08302481230348 433.87765255767624, 155.27784789968283 433.3456587691955, 195.97941424194724 435.70487303491683 M194.71873342506586 433.3811613548547 C196.99998714302106 442.71765689477326, 195.43446109865232 451.4634286340326, 195.4801264833659 463.38547855503856 M195.87227403465658 433.93992690797893 C195.35351067034526 441.5871667267755, 196.64774134008212 448.58945777695624, 195.27822654191405 465.67340473290534 M194.50408859960734 464.26079164631665 C164.68191041573883 465.9965650809981, 132.0190656516701 466.902707542298, 112.00511292926967 467.0062087763101 M195.81153891030698 464.79473942872136 C162.64285704921932 466.167515900854, 128.82754375655205 466.6369751305618, 109.94223449770361 464.00143865104764 M112.16677340976894 464.9192629564553 C111.47170059453323 456.52507712990047, 108.58786476622895 443.4718325417489, 109.54901836626232 436.8655578482896 M109.88763030115516 466.0022670602426 C110.34366244545951 453.6839755365625, 109.57665616146102 441.67423866223544, 108.94073132220656 435.4416542327032" stroke="#1e1e1e" stroke-width="1.8" fill="none"></path></g><text x="153" y="456" font-family="Caveat, 'Comic Sans MS', 'Comic Sans', cursive" font-size="17" fill="#1e1e1e" text-anchor="middle">postgres</text><g><path d="M204.22259229999037 433.35291283447293 L293.4554328439757 435.3988115521148 L293.0324321327731 467.1314810903743 L205.1237134573981 462.97230206448586" stroke="none" stroke-width="0" fill="#ffc9c9"></path><path d="M205.6924794169143 436.273933869414 C222.88152813017368 433.8096005591128, 239.81649683397262 434.29343769275886, 291.47933976966885 435.0100216863677 M207.00986190428958 434.4439819619991 C231.30268530854957 434.4253576088298, 256.1454048576765 435.4667239445794, 292.4410025267862 435.43297049561517 M290.2091080935672 433.6567845819518 C292.25746688588146 442.3960100326687, 291.45263032062536 452.90869720671327, 290.80972901303323 464.62918812613935 M291.0997195153497 434.16072544613854 C292.4031808837522 443.792910061311, 292.6232961668838 451.62324693249536, 292.82579107275234 464.96087282756343 M293.8621703715995 466.226007479243 C258.2675486240536 463.570008382618, 221.2714469647035 463.8782736931439, 207.82521518785506 464.36233295183627 M291.8737696885131 465.7366342172958 C259.5177141902037 464.1849062188711, 228.74609463168306 464.355754633173, 205.8750791876577 465.1474674240686 M205.17410887796433 466.80964821558445 C206.7852546064239 456.03957867249846, 206.39574206155353 452.66126919258386, 203.99999873358757 433.3388690052554 M205.02738290717826 466.00031240144745 C206.76809569436872 455.15165504729373, 206.55774928469026 443.95772343548015, 206.5255459486507 435.4284873173572" stroke="#1e1e1e" stroke-width="1.8" fill="none"></path></g><text x="249" y="456" font-family="Caveat, 'Comic Sans MS', 'Comic Sans', cursive" font-size="17" fill="#1e1e1e" text-anchor="middle">redis</text><g><path d="M108.66225097253918 474.91669543907045 L196.4055393703282 475.19094511196016 L195.11149942949413 502.9889611117542 L107.94182548597455 506.858033477515" stroke="none" stroke-width="0" fill="#b2f2bb"></path><path d="M108.4354692094028 475.1342070825398 C128.7301855444908 473.94509076615424, 145.40113402679563 475.6462580396757, 196.80638564750552 473.24159073904156 M109.19632978476584 475.83504043184223 C136.5223458047956 474.9730626599833, 162.81296181567012 475.3877891199633, 196.90259081162512 475.1610679563135 M198.0994827620685 473.93240780904887 C195.5149466287419 486.4743631705642, 195.47079954259843 494.3539657793939, 194.13933154270052 505.8728976972401 M196.52716499604284 474.3815239842981 C195.25285109715907 485.9986533958465, 196.5988509936854 496.85703608803453, 196.1733556035906 504.24834092222153 M196.82025214359163 503.79122331216934 C177.05318683236837 505.543451684238, 157.32382827773688 505.2538398439899, 111.64531744644046 506.1184571273625 M195.93600046671926 504.4785290058702 C166.59257133118808 507.05109653688817, 136.6646455068141 506.9233341357842, 109.80792387761176 504.09349619708956 M110.5814443461597 504.3000334747136 C109.17480861831457 493.9540802150965, 111.2796193568781 485.45070584341886, 110.85097910091281 474.2121801622212 M110.36713551320136 505.9983577426523 C110.2685289432779 496.619334558025, 110.61484240791947 486.24120820872486, 109.91036057509481 475.4153204020113" stroke="#1e1e1e" stroke-width="1.8" fill="none"></path></g><text x="153" y="496" font-family="Caveat, 'Comic Sans MS', 'Comic Sans', cursive" font-size="17" fill="#1e1e1e" text-anchor="middle">api</text><g><path d="M205.10190964508803 476.480478043668 L291.35564589668064 474.9830786718056 L293.5905667262152 503.24644113313406 L207.159937514551 506.3437648905441" stroke="none" stroke-width="0" fill="#ffec99"></path><path d="M207.5784590018913 473.99448029566554 C222.17884295880796 475.83178097319563, 238.58577121961864 474.3502783865925, 294.1334315253422 475.87315979171547 M205.5827976652421 475.0260989016853 C233.7420063010417 472.87196771113685, 263.68051877366383 474.86005429534725, 291.16417909646407 474.88916541701184 M293.58985743056985 474.208031036146 C289.84842637160233 486.1527163084596, 290.56496876457146 495.79923435207456, 293.86893407236784 507.1166072683409 M291.754610476736 474.6023225224577 C293.226521310566 482.204396730382, 291.29840582048706 487.89082524357366, 291.5209201344289 505.73580901687967 M291.7783339155838 505.75643914509567 C270.6388250406832 507.516894985858, 250.97620959077028 506.6294059948359, 207.46541970502585 503.4745813028887 M291.9982312449254 505.4204237944447 C263.4674284721725 505.06848685490525, 236.58319638194516 504.6421136383955, 205.74076856756582 505.2395249701105 M207.98877981435507 506.19041873384265 C204.48836263020524 497.86858175769447, 204.6874966522027 494.64014249425384, 205.30195946823807 475.085491319187 M205.50688811922447 505.99640308385716 C206.69296219218708 495.88701406875623, 205.39593553114867 488.52469298196957, 205.29517520153894 475.4021534866653" stroke="#1e1e1e" stroke-width="1.8" fill="none"></path></g><text x="249" y="496" font-family="Caveat, 'Comic Sans MS', 'Comic Sans', cursive" font-size="17" fill="#1e1e1e" text-anchor="middle">ui</text><text x="360" y="392" font-family="Caveat, 'Comic Sans MS', 'Comic Sans', cursive" font-size="16" fill="#2b8a3e" text-anchor="middle" font-weight="700">✓ running</text><g><path d="M415.22905379086734 230.65553895682098 C439.72390683647245 232.6841089027226, 467.9653495427221 230.71076395681501, 545.0256213739515 231.5693420097232 M415.6053377471864 229.45839443579317 C455.03653987366704 229.85689149266483, 495.1030287127942 229.17820103532077, 544.2785028539598 229.8112634934485" stroke="#c92a2a" stroke-width="2.8" fill="none"></path></g><g><path d="M544.7216637230479 229.9295752414502 C542.652777109617 231.39388346686633, 539.8097044649733 232.01219796725977, 533.5323341957413 235.41594011951446 M544.7101021517534 230.19096728744915 C540.9754406280584 231.67181516204252, 537.042240211034 233.60023439538236, 532.9731139172454 235.14387684283054" stroke="#c92a2a" stroke-width="2.8" fill="none"></path></g><g><path d="M544.3502743435558 229.5928377816919 C543.1920978043194 228.9444624163283, 540.2708515930373 227.80177848622517, 532.6244159323749 224.29167737825566 M544.8242858437122 229.95196183535737 C540.5387854573507 227.9790481436815, 536.8873901782911 226.13057817254864, 533.1094922741296 224.46177022212441" stroke="#c92a2a" stroke-width="2.8" fill="none"></path></g><g><path d="M555.148645490408 213.46646748185157 C562.8027613473415 220.02516581254005, 569.6765169454097 226.75653516488077, 587.1074564874173 246.83210411667824 M555.4640529662371 214.10073322951794 C566.1244072730303 224.02503213012218, 575.8383600528001 234.14158977591993, 588.3420342475176 245.53516192138196" stroke="#c92a2a" stroke-width="3" fill="none"></path></g><g><path d="M588.863003559038 212.8447983253747 C580.6269307401388 219.4374311803609, 574.5333031591387 226.83294264960588, 555.8312996935099 245.86750541813672 M587.6748536283151 213.6594923948869 C577.1001350177422 224.71314934049693, 567.3973048610583 235.17116395686713, 556.5938096756115 246.58685144539922" stroke="#c92a2a" stroke-width="3" fill="none"></path></g><text x="660" y="224" font-family="Caveat, 'Comic Sans MS', 'Comic Sans', cursive" font-size="20" fill="#c92a2a" text-anchor="middle" font-weight="700">can't reach VM-B</text><g><path d="M360.22905379086734 342.655538956821 C380.56108928058 367.0971990842633, 404.80208242810966 387.7263941451236, 470.0256213739514 456.5693420097232 M360.6053377471864 341.45839443579314 C394.832730258806 376.5511575147398, 428.76402991301416 410.53628595218805, 469.2785028539598 454.8112634934485" stroke="#c92a2a" stroke-width="2.8" fill="none"></path></g><g><path d="M469.7216637230478 454.9295752414502 C467.60993079819514 454.3720866113388, 464.72524853595166 452.96833473888626, 458.32431416290774 450.3069716277653 M469.7101021517534 455.19096728744915 C465.92961138824904 453.35443649038393, 461.92815723719684 451.96598841371775, 457.76509388441184 450.03490835108136" stroke="#c92a2a" stroke-width="2.8" fill="none"></path></g><g><path d="M469.3502743435558 454.5928377816919 C469.66218856936274 452.5895679959099, 468.21892051447134 450.0662145853601, 465.0131441308114 442.38941601614636 M469.8242858437123 454.95196183535734 C468.1042260517612 450.6103181047369, 467.03491969016136 446.34976149435204, 465.4982204725662 442.5595088600151" stroke="#c92a2a" stroke-width="2.8" fill="none"></path></g><g><path d="M481.14864549040794 446.46646748185157 C488.8027613473415 453.0251658125401, 495.6765169454098 459.7565351648808, 513.1074564874173 479.83210411667824 M481.4640529662371 447.1007332295179 C492.1244072730303 457.02503213012216, 501.83836005280017 467.1415897759199, 514.3420342475176 478.5351619213819" stroke="#c92a2a" stroke-width="3" fill="none"></path></g><g><path d="M514.863003559038 445.8447983253747 C506.62693074013896 452.4374311803609, 500.53330315913865 459.83294264960585, 481.83129969350995 478.8675054181367 M513.6748536283151 446.6594923948869 C503.1001350177422 457.71314934049695, 493.39730486105833 468.17116395686713, 482.59380967561157 479.58685144539925" stroke="#c92a2a" stroke-width="3" fill="none"></path></g><text x="600" y="470" font-family="Caveat, 'Comic Sans MS', 'Comic Sans', cursive" font-size="20" fill="#c92a2a" text-anchor="middle" font-weight="700">can't reach host</text><g><path d="M597.9763398016803 120.89856690960005 L919.7232933039777 118.09107630746439 L919.3444376136176 240.34804693656042 L600.5736747081392 241.85183658497408" stroke="none" stroke-width="0" fill="#ffffff"></path><path d="M600.2564211356946 118.94741111420244 C664.5208675283382 117.6652000491853, 729.7788100918602 117.23340433652818, 919.6419066955519 119.94091098779724 M600.377452915485 120.12294337556985 C697.494666027956 118.36943429648302, 792.9390865858793 119.4630928828457, 920.5224911061786 119.93155134786892 M922.1736986120231 121.60570096923038 C918.4449260881171 150.9240649822168, 921.174537708424 184.12347099883482, 921.02926626103 238.7116861785762 M920.1979253662284 119.05535321333446 C919.2800402056891 164.0729615765158, 917.3243145432789 208.89643641957082, 921.0243595240172 239.3585838342551 M920.1932743847327 239.10768543521644 C805.0724321197588 241.54864340122043, 693.2846520641764 240.53807410941405, 600.0208697041021 239.46196671003537 M920.3945834024414 239.32834424736333 C814.7461049505384 243.93055780120423, 708.85511463821 243.44117600924906, 599.3664792192536 240.48341259349797 M600.0539358635433 238.5380690987222 C600.5668554950505 203.01675535319373, 598.4688103694468 167.83629196090624, 600.1247754623182 118.0363415624015 M599.1192147356924 241.1145066062454 C601.8385942532216 193.3681007924024, 600.4252446322237 145.29946392425336, 601.1064684239682 120.33729336806573" stroke="#1e1e1e" stroke-width="2" fill="none"></path></g><text x="620" y="152" font-family="Caveat, 'Comic Sans MS', 'Comic Sans', cursive" font-size="21" fill="#1e1e1e" text-anchor="start" font-weight="700">separate VM</text><text x="620" y="178" font-family="Caveat, 'Comic Sans MS', 'Comic Sans', cursive" font-size="18" fill="#1e1e1e" text-anchor="start">= separate kernel + daemon</text><text x="620" y="204" font-family="Caveat, 'Comic Sans MS', 'Comic Sans', cursive" font-size="18" fill="#c92a2a" text-anchor="start" font-weight="700">= no shared blast radius.</text><text x="620" y="228" font-family="Caveat, 'Comic Sans MS', 'Comic Sans', cursive" font-size="16" fill="#666" text-anchor="start">one VM dies, the rest keep running.</text></svg>