<svg xmlns="http://www.w3.org/2000/svg" viewBox="0 0 1060 700" width="1060" height="700" font-family="Caveat, 'Comic Sans MS', 'Comic Sans', cursive"><rect x="2" y="2" width="1056" height="696" rx="16" fill="#fdfdf8" stroke="#e7e3d5" stroke-width="2"></rect><text x="530" y="40" font-family="Caveat, 'Comic Sans MS', 'Comic Sans', cursive" font-size="23" fill="#1e1e1e" text-anchor="middle" font-weight="700">Every worktree gets its own VM — its own hostname + Docker daemon,</text><text x="530" y="66" font-family="Caveat, 'Comic Sans MS', 'Comic Sans', cursive" font-size="23" fill="#D97757" text-anchor="middle" font-weight="700">all running identical stock ports</text><g><path d="M42.49534553475678 261.8243082445115 L192.18327081389725 262.6654576342553 L195.3054631371051 364.01109120063484 L45.383345844224095 363.4872465413064" stroke="none" stroke-width="0" fill="#d0bfff"></path><path d="M44.35895171575248 264.9582710880786 C71.71178469993174 264.43889128556475, 103.11432891152799 266.0388477384113, 194.59608015231788 261.38503253646195 M43.020016551949084 263.21897913422436 C82.77519347239286 263.48144546104595, 120.91269556526095 262.43635624600574, 194.04438570234925 263.04223810043186 M194.5505636613816 264.258498551324 C192.03741364460438 284.9566395971924, 192.41045199614018 302.89367415197194, 192.35821631364524 362.459675969556 M194.71516564581543 262.26088915672153 C195.24115284904838 285.92314243968576, 195.5941248498857 306.3095006039366, 193.85315269324929 362.0336558362469 M192.29202416352928 362.2983977217227 C133.74596758373082 364.89123288774863, 79.82518375478685 366.7383626499213, 44.04684898070991 364.44714784808457 M193.59860152099282 362.09401984419674 C147.28924987930804 364.1877441094257, 101.40354421082883 365.1157784448005, 44.334245772100985 362.37766508664936 M45.690938202664256 361.277980806306 C45.92107350472361 338.4031061474234, 44.934572824276984 314.8575790990144, 45.37700500898063 262.408788504079 M43.51935371849686 364.22334556188434 C42.94397906027734 325.42139955516905, 43.034795528277755 290.2036048164591, 44.36110854241997 264.0704511543736" stroke="#1e1e1e" stroke-width="2.2" fill="none"></path></g><text x="119" y="305" font-family="Caveat, 'Comic Sans MS', 'Comic Sans', cursive" font-size="22" fill="#1e1e1e" text-anchor="middle" font-weight="700">git repo</text><text x="119" y="331" font-family="Caveat, 'Comic Sans MS', 'Comic Sans', cursive" font-size="16" fill="#555" text-anchor="middle">+ worktrees</text><g><path d="M194.22905379086734 313.655538956821 C202.15623093355745 282.28475573320014, 213.59578549318314 247.70774688372464, 240.02562137395142 151.5693420097232 M194.6053377471864 312.45839443579314 C206.92525087294132 262.98297757016195, 221.22394513540866 212.30249525572808, 239.2785028539598 149.8112634934485" stroke="#888" stroke-width="2.2" fill="none"></path></g><g><path d="M239.7216637230478 149.9295752414502 C240.40364178801678 152.88883436512722, 240.3105086173744 155.01991190327098, 242.28017742690554 162.97873533210543 M239.71010215175338 150.19096728744915 C240.4694876691681 154.18704951545675, 241.04711066936525 158.59690770405567, 241.7209571484096 162.7066720554215" stroke="#888" stroke-width="2.2" fill="none"></path></g><g><path d="M239.35027434355578 149.5928377816919 C238.91859422433095 152.01433279018966, 236.70637773206852 153.92915417733965, 231.16900680186663 159.57679891863512 M239.8242858437123 149.95196183535737 C236.8143575426822 153.3414357260812, 234.40166648378596 156.8345538972476, 231.6540831436214 159.74689176250388" stroke="#888" stroke-width="2.2" fill="none"></path></g><g><path d="M242.46121278963983 115.20256870426238 L378.19392344914377 113.87881361879408 L379.2121928092092 186.75909333862364 L238.19454870186746 184.0603878442198" stroke="none" stroke-width="0" fill="#a5d8ff"></path><path d="M239.65793096460402 112.98559240065515 C265.5937102455646 114.69558160733432, 298.61041642166674 118.02855204772204, 378.30066793598235 116.54193780384958 M240.1668045995757 114.3248261185363 C288.1080537540838 115.04207126647233, 333.40201267879456 113.83299447447061, 381.2032141862437 115.3519841702655 M379.58803051151335 113.82082126103342 C380.8771736633964 140.7984110508114, 382.3191599261947 166.43344674818218, 381.31846928037703 183.83063307963312 M380.9597137151286 113.84074297267944 C379.59126854883505 133.00558929983526, 380.0327018891461 148.20464297104627, 379.6096057770774 185.28046530205756 M379.100201362744 185.81998101435602 C329.8888730276376 183.1899063417688, 279.22148428298533 185.24932102654128, 242.05707483924925 187.05956540070474 M380.8216793416068 185.78349870163947 C325.4896652949974 185.31983283646406, 271.1880343584344 186.38678563125433, 241.1187147675082 183.98054238874465 M242.42448502220213 187.3165067192167 C240.61834843708203 166.78717091865838, 239.06417610002683 145.66906520538032, 241.47504174150527 116.7399042006582 M240.99461432080716 186.02787968236953 C238.6405888161622 158.1438002595678, 239.39739271616563 133.4609814034775, 238.84257118683308 114.75375961977988" stroke="#1e1e1e" stroke-width="2" fill="none"></path></g><text x="310" y="145" font-family="Caveat, 'Comic Sans MS', 'Comic Sans', cursive" font-size="17" fill="#1e1e1e" text-anchor="middle" font-weight="700">worktree</text><text x="310" y="167" font-family="Caveat, 'Comic Sans MS', 'Comic Sans', cursive" font-size="15" fill="#444" text-anchor="middle">feature/a</text><g><path d="M380.22905379086734 150.65553895682098 C388.7221086015925 151.92630960181356, 400.96175307296215 149.95296465590596, 430.0256213739514 151.5693420097232 M380.6053377471864 149.45839443579317 C395.49578313399104 149.9786800017953, 411.0215152334422 149.29998954445125, 429.2785028539598 149.8112634934485" stroke="#1e1e1e" stroke-width="2.4" fill="none"></path></g><g><path d="M429.7216637230478 149.9295752414502 C427.65277710961686 151.39388346686633, 424.8097044649733 152.01219796725977, 418.5323341957413 155.41594011951446 M429.7101021517534 150.19096728744915 C425.97544062805844 151.67181516204252, 422.04224021103414 153.60023439538236, 417.9731139172454 155.14387684283054" stroke="#1e1e1e" stroke-width="2.4" fill="none"></path></g><g><path d="M429.3502743435558 149.5928377816919 C428.1920978043193 148.9444624163283, 425.27085159303715 147.80177848622517, 417.62441593237486 144.29167737825566 M429.8242858437123 149.95196183535737 C425.5387854573507 147.9790481436815, 421.88739017829096 146.13057817254864, 418.10949227412965 144.46177022212441" stroke="#1e1e1e" stroke-width="2.4" fill="none"></path></g><g><path d="M427.96082491753623 81.979594391305 L812.0008626836352 78.64260175498202 L812.0293147373013 232.05168427200988 L431.85149418888614 228.475991722662" stroke="none" stroke-width="0" fill="#e9ecef"></path><path d="M428.9377946890363 81.01418447238079 C505.9512069297539 79.24177055847478, 581.915748282119 79.0715648303425, 809.8852143354745 79.71943769127375 M430.3635532887106 80.54329934911401 C565.7741152541818 81.72045718329719, 701.5153917785523 82.06772770572213, 809.5366864095473 80.02580025698029 M809.0089108166285 79.13402947364375 C807.0727361344034 135.48003013478592, 809.3791422598297 188.1700511625968, 810.5566539731808 230.24393941042945 M810.0818108522799 79.09165040240623 C810.0162674436579 125.10584388044663, 809.237115117372 173.33958677598275, 808.8682018348482 229.47076995507814 M808.749826215654 228.83200583565852 C664.5452951349946 230.03960810260998, 520.448382477201 230.86754440114052, 431.11149472030564 229.43314387477434 M810.535393061207 229.61233252150907 C669.8187114752152 228.73026180809254, 531.2412637695645 227.6669238206193, 430.62538902901423 230.16969454518863 M429.02372987242416 229.46467178640887 C431.0114021258196 176.8807558179833, 432.2916880653938 117.4021822377108, 429.7147921589203 77.73230324266478 M430.01706046401523 231.02565847919323 C429.2000110679073 178.88129291241057, 430.5893830069108 126.69520051800646, 430.6434968987014 79.73879721597768" stroke="#1e1e1e" stroke-width="2.6" fill="none"></path></g><text x="446" y="106" font-family="Caveat, 'Comic Sans MS', 'Comic Sans', cursive" font-size="18" fill="#1e1e1e" text-anchor="start" font-weight="700">host  wt-feature-a</text><text x="446" y="127" font-family="Caveat, 'Comic Sans MS', 'Comic Sans', cursive" font-size="13" fill="#777" text-anchor="start">docker context · colima-wt-feature-a</text><g><path d="M444.6451845999807 136.9058256689459 L532.7108656879515 136.59762310422957 L531.8648642655462 170.06296218074857 L446.4474269147962 166.1446041289717" stroke="none" stroke-width="0" fill="#a5d8ff"></path><path d="M447.5849588338286 138.34786773882806 C464.76305626034735 139.1436011182256, 481.43299366794525 140.11127538551764, 533.1586795393378 135.82004337273537 M446.91972380857914 137.98796392399817 C478.30537061709913 139.27511521765965, 510.79080971535296 139.1578478891589, 531.7820050535723 137.7659409912303 M530.6182161871344 137.51356916390358 C529.852933771763 148.9920200653374, 532.6432606412508 159.61739441342652, 531.8194580260664 169.4583762522787 M531.2994390306994 137.42145089227705 C531.2443617675044 148.48582012262196, 531.6845923337676 160.34649386499078, 532.5515821455047 169.02174565512686 M533.524340743199 168.25201495848597 C496.7350972481072 166.0156167652361, 461.542893929407 166.6321473862879, 447.45043037571014 168.92466590367258 M532.8475393770262 168.37326843459158 C502.5354283804074 168.7942124377422, 473.1921892633662 169.13590926634595, 446.85015837531535 167.1949348481372 M446.54821775592865 169.4192964311689 C444.90850921284783 158.27915734499692, 448.52948412310707 153.12253838516773, 444.19999746717514 136.8777380105108 M445.1547658143565 168.9006248028949 C445.9741913887374 159.2033100945875, 445.55349856938045 148.8154468709603, 445.95109189730135 137.75697463471442" stroke="#1e1e1e" stroke-width="1.8" fill="none"></path></g><text x="489" y="159" font-family="Caveat, 'Comic Sans MS', 'Comic Sans', cursive" font-size="17" fill="#1e1e1e" text-anchor="middle">postgres</text><g><path d="M541.0848432725295 138.46960827354343 L627.6609722143039 136.38975666407495 L625.9439315622673 165.92044220212847 L541.2655389433727 170.03033554200084" stroke="none" stroke-width="0" fill="#ffc9c9"></path><path d="M542.327948626317 137.20814095195382 C558.2117136746645 136.63029132526702, 574.6176308607683 138.81529573243446, 626.0857254171744 138.45161242540925 M541.1061916890554 137.1790223938413 C575.5250311133451 137.17402026881314, 611.6583666733467 136.43011306454278, 628.2435933384113 137.49403845192865 M626.1085908556357 137.78919239100068 C629.5104135146233 142.67037320323288, 628.6614298632238 149.06266298610717, 627.1490605557337 166.30208582337946 M628.7268845113925 137.64224943043664 C629.2180319809113 144.69156345715746, 628.5841471605692 153.5802830205299, 627.899146676343 168.309213749785 M628.4824225151912 165.8172307914123 C607.5207354564219 167.98906006685607, 589.5952752424404 168.00771353713387, 543.2705326342955 166.28079007919877 M628.9097701552324 167.115163223166 C601.6102855213918 166.81160275575928, 573.1107401384971 166.85468876895717, 542.7830030652694 168.34096362115815 M543.9555532241241 166.90968169029802 C543.6980632247385 156.19365888759495, 541.0133614184316 145.9119750360027, 543.0509778345004 137.7510491674766 M542.4945184203796 168.89867014409975 C542.3986246376467 160.67098960531877, 542.5345916926098 151.098931644205, 541.3359065237455 137.74380771936848" stroke="#1e1e1e" stroke-width="1.8" fill="none"></path></g><text x="585" y="159" font-family="Caveat, 'Comic Sans MS', 'Comic Sans', cursive" font-size="17" fill="#1e1e1e" text-anchor="middle">redis</text><g><path d="M445.5245019450784 180.03339087814092 L530.6110787406564 176.18189022392033 L532.4229988589883 206.17792222350835 L444.0836509719491 209.51606695502997" stroke="none" stroke-width="0" fill="#b2f2bb"></path><path d="M445.0709384188056 176.0684141650796 C464.06037108898164 176.76578153230847, 480.2022680535913 175.7681160793513, 531.412771295011 176.68318147808313 M445.49265956953167 178.5700808636844 C465.74469160959126 177.72172531996665, 483.9259236313403 178.55117823992668, 532.7051816232503 177.22213591262698 M533.998965524137 178.06481561809778 C532.7678932574838 186.74872634112836, 532.6795990851969 190.50793155878782, 530.4786630854011 207.54579539448022 M531.9543299920857 177.86304796859622 C532.0677021943181 186.89730679169298, 532.5597019873708 196.61407217606902, 531.2467112071812 207.59668184444308 M531.4405042871833 207.78244662433863 C513.5063736647368 209.96250336847604, 491.24765655547384 209.3832796879798, 447.0906348928809 208.036914254725 M532.9720009334385 208.05705801174045 C506.4851426623762 209.67779307377634, 481.02929101362827 209.4222682715684, 446.71584775522354 207.2869923941791 M444.9628886923194 208.80006694942713 C447.01161723662915 200.10816043019295, 446.8212387137562 195.10141168683768, 445.50195820182563 178.6243603244424 M445.6342710264027 208.89671548530458 C445.8990578865558 202.13866911605, 446.59168481583896 193.38241641744972, 446.92072115018965 177.73064080402256" stroke="#1e1e1e" stroke-width="1.8" fill="none"></path></g><text x="489" y="199" font-family="Caveat, 'Comic Sans MS', 'Comic Sans', cursive" font-size="17" fill="#1e1e1e" text-anchor="middle">api</text><g><path d="M541.9641606176272 177.19717348273844 L629.9611852670089 175.97402378376574 L626.5020661557094 206.43540224488825 L543.3017630005255 209.0017983680591" stroke="none" stroke-width="0" fill="#ffec99"></path><path d="M539.8139282112941 179.32868737820536 C557.5090285032989 176.90127173934988, 577.7869052464142 177.12093642626814, 628.7398171728477 179.314750530757 M541.8791274500079 177.76113933352752 C562.9643521058373 178.2694303711202, 582.5934805893339 178.4722434153106, 626.9667699080892 176.95023337332532 M629.4893401926383 178.34043884519488 C627.1013730003442 186.4270794790238, 627.7737683071699 191.95320013146846, 625.8082656150684 208.789504965581 M627.1817754727788 178.0838465067558 C626.9173724077251 189.10305012622848, 628.5352568141725 201.84786133160816, 628.7942757380195 209.0841499391012 M626.3985860591754 209.74766245726497 C607.0920118730515 207.535946670096, 584.9000378685072 206.35884583882577, 542.9107371514663 209.7930384302512 M629.0342317116447 208.99895280031487 C605.5599998033606 207.69518339179342, 580.9478418887593 207.14104777417964, 542.6486924451776 208.43302116720005 M542.3702241605148 206.29045220855625 C542.3251712485197 198.02266197279096, 540.2291160090807 187.89084833767265, 539.9529385691509 179.4976714814082 M542.9740236324258 208.89476082650944 C542.323491135465 195.40634862678127, 541.3727779390681 183.66590119069443, 542.3055357766337 177.7174738886766" stroke="#1e1e1e" stroke-width="1.8" fill="none"></path></g><text x="585" y="199" font-family="Caveat, 'Comic Sans MS', 'Comic Sans', cursive" font-size="17" fill="#1e1e1e" text-anchor="middle">ui</text><text x="446" y="220" font-family="Caveat, 'Comic Sans MS', 'Comic Sans', cursive" font-size="15" fill="#2b6a36" text-anchor="start" font-weight="700">ui :30001 · api :38003 · pg :35432</text><g><path d="M810.2290537908673 150.65553895682098 C813.9215691311285 151.69896981154085, 821.3606741320342 149.72562486563325, 836.0256213739515 151.5693420097232 M810.6053377471865 149.45839443579317 C818.1335561120883 150.01521655453445, 826.2970611896366 149.3365260971904, 835.2785028539598 149.8112634934485" stroke="#D97757" stroke-width="2.4" fill="none"></path></g><g><path d="M835.7216637230479 149.9295752414502 C833.652777109617 151.39388346686633, 830.8097044649733 152.01219796725977, 824.5323341957413 155.41594011951446 M835.7101021517534 150.19096728744915 C831.9754406280584 151.67181516204252, 828.042240211034 153.60023439538236, 823.9731139172454 155.14387684283054" stroke="#D97757" stroke-width="2.4" fill="none"></path></g><g><path d="M835.3502743435558 149.5928377816919 C834.1920978043194 148.9444624163283, 831.2708515930373 147.80177848622517, 823.6244159323749 144.29167737825566 M835.8242858437122 149.95196183535737 C831.5387854573507 147.9790481436815, 827.8873901782911 146.13057817254864, 824.1094922741296 144.46177022212441" stroke="#D97757" stroke-width="2.4" fill="none"></path></g><g><path d="M838.4588855570182 102.86472282651812 L1045.0355588560924 104.46154243592173 L1045.1149243777618 206.51463893894106 L838.1362216239795 208.554011114873" stroke="none" stroke-width="0" fill="#fff"></path><path d="M838.9677629295046 102.19110211606915 C879.4161924160898 101.8968427856874, 919.0687923005804 98.90025733612491, 1046.090287185431 101.54117794078256 M838.2686053706547 100.94032287056676 C891.7748655471737 98.72368411424006, 946.6551307451227 100.51998697611914, 1043.4218796723937 102.88828511706215 M1045.1133123422042 102.70007053669542 C1042.2115238161664 129.5651165874675, 1043.8400292547326 156.20705530028792, 1045.7475774371997 210.3104710644111 M1044.6922965380363 102.3461875510402 C1045.5021712675598 128.279124929104, 1043.6200906082895 154.85832209186628, 1044.161182123702 208.42229322018102 M1045.7765764670924 207.30509101492282 C989.3140925603858 209.26758287573412, 935.8388713070779 207.47248874549612, 838.7391221459657 207.13951991089095 M1045.108888898605 207.73791056749556 C992.8228799015156 206.29058741341444, 941.6424010393206 205.4281766500246, 838.5881278012181 207.37201260029352 M840.0199541235343 208.2054971223697 C837.6853892814089 186.60004492793232, 838.1379666041304 166.57049662601202, 838.9135442459956 99.6942984526977 M838.1292911800556 209.0145524633117 C838.5660732099135 169.52534962976353, 838.1182853439171 131.27948299692943, 837.6481254580431 101.66398519696668" stroke="#1e1e1e" stroke-width="2" fill="none"></path></g><g><path d="M841.9181566717103 128.74070012848824 C882.2311457663775 129.36287242567465, 921.410516887717 128.8867792347662, 1039.7256115259602 129.59396962802856 M842.177835421171 129.09361534724013 C898.0676073447802 128.58176436072887, 954.4955551373772 128.8952734405428, 1039.9699854030273 129.16538953492417" stroke="#bbb" stroke-width="1.4" fill="none"></path></g><circle cx="853" cy="116" r="4.5" fill="#ff6b6b"></circle><circle cx="869" cy="116" r="4.5" fill="#ffd43b"></circle><circle cx="885" cy="116" r="4.5" fill="#51cf66"></circle><rect x="900" y="107" width="136" height="18" rx="9" fill="#f1f3f5" stroke="#d6d6d6" stroke-width="1"></rect><text x="910" y="121" font-family="Caveat, 'Comic Sans MS', 'Comic Sans', cursive" font-size="13" fill="#333" text-anchor="start">http://wt-feature-a</text><text x="941" y="192" font-family="Caveat, 'Comic Sans MS', 'Comic Sans', cursive" font-size="13" fill="#aaa" text-anchor="middle" font-style="italic">your app</text><g><path d="M194.22905379086734 313.655538956821 C201.92920311450212 313.8883072470881, 213.3687576741278 310.9148499115005, 240.02562137395142 309.5693420097232 M194.6053377471864 312.45839443579314 C208.22753381160646 311.45097213102207, 222.5262280740738 309.23848437744823, 239.2785028539598 307.8112634934485" stroke="#888" stroke-width="2.2" fill="none"></path></g><g><path d="M239.7216637230478 307.9295752414502 C237.78141066106446 309.6434129885553, 235.06681844688106 310.5120892148992, 229.17464972047853 314.6675799435874 M239.71010215175338 308.19096728744915 C236.1834151586377 310.08407135684746, 232.46096575626427 312.42316782394835, 228.6154294419826 314.39551666690346" stroke="#888" stroke-width="2.2" fill="none"></path></g><g><path d="M239.35027434355578 307.5928377816919 C238.09292253644247 307.2054917978672, 235.0709998369639 306.32559298738033, 227.12111268392027 303.6053962685129 M239.8242858437123 307.95196183535734 C235.36606817498975 306.43519125503957, 231.5387869105407 305.0458177476133, 227.60618902567504 303.77548911238165" stroke="#888" stroke-width="2.2" fill="none"></path></g><g><path d="M242.42242557927966 270.90513740852475 L378.88784689828753 273.25762723758817 L380.92438561841846 344.0181866772473 L238.88909740373492 343.6207756884396" stroke="none" stroke-width="0" fill="#b2f2bb"></path><path d="M241.81586192920804 271.4711848013103 C265.68742049112916 272.4411632146686, 298.7208328433335 274.1071040954441, 379.1013358719647 273.58387560769916 M239.0836091991514 272.8996522370726 C278.9661075081676 274.28414253294466, 316.0540253575891 274.3659889489412, 381.1564283724874 272.453968340531 M381.6760610230267 273.14164252206683 C383.0293473267928 294.0968221016228, 380.9133198523894 317.36689349636436, 380.13693856075406 343.16126615926623 M380.6694274302572 271.9314859453589 C379.2075370976701 293.76117859967053, 380.0904037782922 312.65928594209254, 380.46921155415475 342.31093060411513 M380.70040272548795 342.13996202871203 C333.2777460552752 344.3298126835376, 287.94296856597066 343.4486420530826, 241.6141496784985 344.6191308014095 M380.3933586832136 343.31699740327895 C325.7293305899948 342.4396656729281, 273.12606871686876 342.0735712625086, 240.98742953501642 342.2110847774893 M242.34897004440427 345.1330134384334 C237.51169687416404 318.07434183731675, 239.40335220005363 294.83813041076064, 240.45008348301053 273.9798084013164 M240.73922864161432 343.80575936473906 C239.7561776323244 318.5376005191356, 238.76978543233128 294.671962806955, 238.93514237366617 273.75751923955977" stroke="#1e1e1e" stroke-width="2" fill="none"></path></g><text x="310" y="303" font-family="Caveat, 'Comic Sans MS', 'Comic Sans', cursive" font-size="17" fill="#1e1e1e" text-anchor="middle" font-weight="700">worktree</text><text x="310" y="325" font-family="Caveat, 'Comic Sans MS', 'Comic Sans', cursive" font-size="15" fill="#444" text-anchor="middle">feature/b</text><g><path d="M380.22905379086734 308.655538956821 C388.7221086015925 309.92630960181356, 400.96175307296215 307.95296465590593, 430.0256213739514 309.5693420097232 M380.6053377471864 307.45839443579314 C395.49578313399104 307.9786800017953, 411.0215152334422 307.2999895444512, 429.2785028539598 307.8112634934485" stroke="#1e1e1e" stroke-width="2.4" fill="none"></path></g><g><path d="M429.7216637230478 307.9295752414502 C427.65277710961686 309.3938834668663, 424.8097044649733 310.0121979672598, 418.5323341957413 313.41594011951446 M429.7101021517534 308.19096728744915 C425.97544062805844 309.67181516204255, 422.04224021103414 311.60023439538236, 417.9731139172454 313.14387684283054" stroke="#1e1e1e" stroke-width="2.4" fill="none"></path></g><g><path d="M429.3502743435558 307.5928377816919 C428.1920978043193 306.9444624163283, 425.27085159303715 305.8017784862252, 417.62441593237486 302.29167737825566 M429.8242858437123 307.95196183535734 C425.5387854573507 305.97904814368144, 421.88739017829096 304.13057817254867, 418.10949227412965 302.4617702221244" stroke="#1e1e1e" stroke-width="2.4" fill="none"></path></g><g><path d="M427.92203770717606 237.68216309556738 L807.694786132779 238.0214153737761 L808.7415075465105 389.3107776106335 L427.5460428907536 388.0363795668818" stroke="none" stroke-width="0" fill="#e9ecef"></path><path d="M430.2324453712505 239.30551563315385 C506.1405009196092 236.41976715102408, 582.2481376703557 235.24942703860242, 810.3655750636672 237.14464827669332 M429.713690208226 237.38829127892987 C541.1049496642627 234.57375795883897, 651.2386819058318 234.19564285990248, 809.5086172605842 237.48703565993108 M811.0969413281418 238.45485073467717 C808.9838610199513 284.79689165437594, 807.7322534081759 331.1403988483362, 809.3751232535578 389.57457249006256 M809.7915245674085 237.18239337508567 C808.90366095223 289.02747148484923, 808.5659419662552 341.6263063561637, 809.7278076119255 389.0012352571357 M809.7098670232323 388.8238284452214 C676.2733744765733 392.2564956794515, 545.0706869100732 391.32022781811133, 430.84576177011326 387.16890513692715 M810.278422082204 387.3324550675577 C674.0499790249332 383.3061471626396, 537.5791981948759 384.3828025044008, 430.54662445378074 388.30800845131597 M428.9482148946263 387.2811785056256 C432.1018992800964 351.69338534073904, 431.82801288261544 313.62216465128586, 428.6898339004256 239.972207443323 M429.7616747848224 388.80353816156276 C430.98467549157795 341.14494926133193, 430.63085133058485 291.6458941001911, 430.7360680855345 238.74255683575757" stroke="#1e1e1e" stroke-width="2.6" fill="none"></path></g><text x="446" y="264" font-family="Caveat, 'Comic Sans MS', 'Comic Sans', cursive" font-size="18" fill="#1e1e1e" text-anchor="start" font-weight="700">host  wt-feature-b</text><text x="446" y="285" font-family="Caveat, 'Comic Sans MS', 'Comic Sans', cursive" font-size="13" fill="#777" text-anchor="start">docker context · colima-wt-feature-b</text><g><path d="M444.6110518548638 297.2840861286968 L533.321518323198 295.81097908876836 L533.3715939376503 327.4109643187374 L447.0586297724396 325.51774543188515" stroke="none" stroke-width="0" fill="#a5d8ff"></path><path d="M445.0839380826801 296.7751890514046 C464.82879769206045 297.14062182236836, 481.49671295024456 296.6413100772016, 533.8632673230022 297.37694864012303 M445.9665118562058 296.49381090831014 C472.6714202417061 295.0304203330122, 500.3465055147186 296.04916542754995, 531.7408335374669 294.9756870610639 M532.4556830372661 296.675891873613 C531.852908057805 304.4273338548839, 531.5121828385554 314.54425168149174, 530.7797109927982 324.2293333623558 M531.0439871000126 295.50130470823495 C532.151383108195 301.6601535761729, 532.9800750139319 309.5254094189033, 531.1080352293327 326.1685551209375 M530.5325179424137 324.77359825111927 C498.4989180795848 326.00874692723227, 471.18102523274723 328.43756247088385, 447.06065623424945 326.53708345629275 M532.4706171976402 325.96274729203435 C502.42114247884604 326.4804442394502, 474.24727677647024 325.5610595274694, 446.7346273707226 325.3978121502325 M446.4817645754665 327.2578223440796 C446.92791040191423 317.32931160479785, 444.7812136555649 304.0662034686655, 447.69803419969975 294.20885370709004 M444.9300264166668 326.70515892338005 C446.66151627965644 318.5712611677125, 446.90681089230253 308.16392419543115, 446.0325545417145 296.6402831001207" stroke="#1e1e1e" stroke-width="1.8" fill="none"></path></g><text x="489" y="317" font-family="Caveat, 'Comic Sans MS', 'Comic Sans', cursive" font-size="17" fill="#1e1e1e" text-anchor="middle">postgres</text><g><path d="M541.0507105274125 294.4478687332943 L628.2716248495504 295.6031126486138 L627.4506612343714 327.6684443401173 L541.876741801016 325.00347684491425" stroke="none" stroke-width="0" fill="#ffc9c9"></path><path d="M539.8269278751686 295.63546226453036 C558.2774551063776 297.2761120294098, 574.6813501430674 297.99413042411845, 626.7903132008389 295.6085176927969 M542.3529797366821 295.6848693781532 C569.8910807379522 295.57812538416573, 599.0140624727123 295.97023060293384, 628.2024218223057 296.9037845217623 M627.9460577057674 296.9515151007101 C627.1103878006656 308.5056869927794, 627.5303520605286 315.98952025417236, 626.1093135224655 325.4730429334566 M628.4714325807057 295.72210324639457 C627.0010533216018 303.8658969107084, 628.9556298407335 312.5591985744424, 628.6555997601711 325.4560232155956 M629.8905997144059 326.7388140840456 C596.4845562878995 327.9821902288523, 560.4334065457806 325.41312862172987, 542.8807584928348 323.89320763181894 M628.5328479758464 326.90464208060877 C601.4959996198304 324.4978345574673, 574.1658276516013 325.47983903008065, 542.6674720606767 326.54384092325347 M543.8891000436619 324.7482076032087 C542.2414644138049 321.2438131473958, 542.5890909508895 313.25564011950047, 542.149014567025 295.0821648640558 M542.2697790226899 326.70320426458494 C542.1619495285656 317.83894067844375, 540.7639040155318 310.44740896867586, 541.4173691681586 296.62711618477476" stroke="#1e1e1e" stroke-width="1.8" fill="none"></path></g><text x="585" y="317" font-family="Caveat, 'Comic Sans MS', 'Comic Sans', cursive" font-size="17" fill="#1e1e1e" text-anchor="middle">redis</text><g><path d="M445.49036919996144 336.0116513378918 L531.2217313759029 335.3952462084591 L533.9297285310925 367.92592436149715 L444.6948538295925 364.4892082579434" stroke="none" stroke-width="0" fill="#b2f2bb"></path><path d="M446.9699176676571 334.4957354776561 C464.12611252069473 334.7628022364512, 480.26598733589054 336.6981507710353, 532.1173590786755 333.8400867454708 M446.7394476171583 337.07592784799635 C477.31074123419825 338.32583043531923, 507.88161943070594 338.0912957783178, 532.6640101071447 336.63188198246064 M531.4364323742687 337.2271383278072 C530.367867543526 348.1840401306748, 531.5485212825016 357.43478882685304, 533.8389160521328 366.71675250455735 M531.6988780613989 335.9429017845541 C532.0507235350087 346.0716402452439, 530.7311846675351 357.7929877299815, 532.0031642910093 366.94349131025376 M532.8486814863979 364.3040299169719 C498.0701944962144 365.5556335304722, 462.085787858814 366.78869477257575, 446.70086075142024 365.64933180734516 M532.5950787540526 365.6465368691832 C506.3708567608148 367.3640248754844, 482.08437852673234 365.84741853269185, 446.6003167506307 365.4898696962744 M444.89643551185725 366.6385928623378 C445.5550184256956 354.7583146899939, 448.3969682462141 346.0450767703354, 444.59999493435026 335.9554760210216 M445.409531628713 366.70124960578977 C446.5863827774748 359.306620189175, 445.74499713876094 352.73089374192057, 447.00218379460273 336.6139492694289" stroke="#1e1e1e" stroke-width="1.8" fill="none"></path></g><text x="489" y="357" font-family="Caveat, 'Comic Sans MS', 'Comic Sans', cursive" font-size="17" fill="#1e1e1e" text-anchor="middle">api</text><g><path d="M541.9300278725102 337.5754339424893 L626.1718379022553 335.18737976830454 L628.0087958278134 368.18340438287703 L543.912965858169 363.9749396709725" stroke="none" stroke-width="0" fill="#ffec99"></path><path d="M541.7129074601456 337.75600869078187 C557.5747699350119 334.89829244349266, 577.8506245287135 338.05097111795214, 629.4444049565121 336.47165579814464 M540.9259154976346 336.2669863178395 C574.5304017304443 336.22473548647275, 606.5491763886996 335.36356095370166, 626.9255983919836 336.359979443159 M626.9268070427701 337.5027615549043 C629.1013472863864 347.8623932685703, 626.6426905044746 358.8800573995337, 629.1685185818002 367.96046207565814 M626.926323542092 336.1637003227137 C627.8243937484157 342.27738357977944, 627.6307394943368 348.82677688552064, 627.3507288218476 366.23095940491186 M627.8067632583901 366.26924574989823 C608.8558327045291 367.5290768320922, 590.1381691718474 368.16426092342175, 542.5209630100056 367.40545598287133 M628.6573095322586 366.5884316577576 C605.4457139017991 365.3814151935015, 582.0029294018634 365.7661980353031, 542.5331614405848 366.63589846929534 M542.3037709800526 364.12897812146696 C539.9445724375863 352.67281623259186, 540.8808455415387 343.2345134211704, 543.4509753016755 336.8287871779874 M542.7492842347361 366.69929494699466 C543.010816026384 354.77429969990624, 542.7260902619902 343.0143785151653, 542.3869984210469 336.6007823540829" stroke="#1e1e1e" stroke-width="1.8" fill="none"></path></g><text x="585" y="357" font-family="Caveat, 'Comic Sans MS', 'Comic Sans', cursive" font-size="17" fill="#1e1e1e" text-anchor="middle">ui</text><text x="446" y="378" font-family="Caveat, 'Comic Sans MS', 'Comic Sans', cursive" font-size="15" fill="#2b6a36" text-anchor="start" font-weight="700">ui :30001 · api :38003 · pg :35432</text><g><path d="M810.2290537908673 308.655538956821 C813.9215691311285 309.69896981154085, 821.3606741320342 307.7256248656332, 836.0256213739515 309.5693420097232 M810.6053377471865 307.45839443579314 C818.1335561120883 308.01521655453445, 826.2970611896366 307.33652609719036, 835.2785028539598 307.8112634934485" stroke="#D97757" stroke-width="2.4" fill="none"></path></g><g><path d="M835.7216637230479 307.9295752414502 C833.652777109617 309.3938834668663, 830.8097044649733 310.0121979672598, 824.5323341957413 313.41594011951446 M835.7101021517534 308.19096728744915 C831.9754406280584 309.67181516204255, 828.042240211034 311.60023439538236, 823.9731139172454 313.14387684283054" stroke="#D97757" stroke-width="2.4" fill="none"></path></g><g><path d="M835.3502743435558 307.5928377816919 C834.1920978043194 306.9444624163283, 831.2708515930373 305.8017784862252, 823.6244159323749 302.29167737825566 M835.8242858437122 307.95196183535734 C831.5387854573507 305.97904814368144, 827.8873901782911 304.13057817254867, 824.1094922741296 302.4617702221244" stroke="#D97757" stroke-width="2.4" fill="none"></path></g><g><path d="M838.420098346658 258.5672915307805 L1045.7294823052362 258.8403560547158 L1041.827117186971 363.7737322775647 L838.830770325847 368.1143989590928" stroke="none" stroke-width="0" fill="#fff"></path><path d="M836.4383976554523 260.6232663387759 C879.5361877897594 259.39735752426037, 919.2402514898071 259.3670264430352, 1042.3529941905547 258.68852826227555 M837.3045904939138 259.4519027107241 C919.5629348746961 260.9055803097873, 1003.0641999197669 259.4009042300429, 1043.3802415520104 260.0890750954227 M1042.2013428537175 262.02089179772884 C1044.2552255295311 281.0718303492293, 1042.3257172308956 303.55710747037085, 1044.5660467175767 364.6411041440442 M1044.402010253165 260.43693052371964 C1044.7904460482764 290.45943146599456, 1043.3497987293172 322.16239953702313, 1045.0207879007794 365.4527585222386 M1042.750846794538 363.80991914220846 C994.9962629381083 366.563910713521, 948.9330869930003 366.601640460417, 838.3449306232918 364.74754492116546 M1044.7276949916288 365.3227369141895 C995.972716035021 367.12947922456016, 947.0153475669814 367.2166278541987, 838.4712874627446 365.5771891477402 M839.9444391457364 366.0220038415864 C839.2174546412285 334.9736722184345, 838.1158596268948 304.91247457507995, 837.8885859875008 261.9342026533559 M837.8739055008627 366.79243214568123 C837.4827460494545 330.7605851295404, 837.7917620834615 294.1733348808251, 837.7406966448762 260.66774481674656" stroke="#1e1e1e" stroke-width="2" fill="none"></path></g><g><path d="M842.4360601032153 286.85724230464547 C882.3275436788797 287.26865973938925, 921.5848317360505 287.5924794541739, 1039.917771830596 287.36403470095246 M841.9178685250693 287.23157361568883 C885.8186422464438 287.5832488100082, 929.0222421816551 287.60657945974174, 1039.9587568077259 286.9498657357879" stroke="#bbb" stroke-width="1.4" fill="none"></path></g><circle cx="853" cy="274" r="4.5" fill="#ff6b6b"></circle><circle cx="869" cy="274" r="4.5" fill="#ffd43b"></circle><circle cx="885" cy="274" r="4.5" fill="#51cf66"></circle><rect x="900" y="265" width="136" height="18" rx="9" fill="#f1f3f5" stroke="#d6d6d6" stroke-width="1"></rect><text x="910" y="279" font-family="Caveat, 'Comic Sans MS', 'Comic Sans', cursive" font-size="13" fill="#333" text-anchor="start">http://wt-feature-b</text><text x="941" y="350" font-family="Caveat, 'Comic Sans MS', 'Comic Sans', cursive" font-size="13" fill="#aaa" text-anchor="middle" font-style="italic">your app</text><g><path d="M194.22905379086734 313.655538956821 C201.7021752954468 345.4918587609761, 213.1417298550725 374.12195293927635, 240.02562137395142 467.5693420097232 M194.6053377471864 312.45839443579314 C209.5298167502716 359.9189666918822, 223.82851101273894 406.1744734991684, 239.2785028539598 465.8112634934485" stroke="#888" stroke-width="2.2" fill="none"></path></g><g><path d="M239.7216637230478 465.9295752414502 C238.32622824613603 464.36067198353413, 236.15845917198146 461.9501491337387, 231.90839672668127 456.27379555350876 M239.71010215175338 466.19096728744915 C237.11675454036347 462.71180479741406, 234.29127856174756 459.67191451872384, 231.34917644818535 456.00173227682484" stroke="#888" stroke-width="2.2" fill="none"></path></g><g><path d="M239.35027434355578 465.5928377816919 C240.88962499584542 463.4728466866612, 240.67458252865626 460.81135244309365, 241.15330594217332 452.6988205131877 M239.8242858437123 465.95196183535734 C240.24832118734142 461.4050104506429, 241.32477568454303 456.9031160962314, 241.63838228392808 452.86891335705644" stroke="#888" stroke-width="2.2" fill="none"></path></g><g><path d="M242.3836383689195 431.6077061127871 L379.5817703474313 432.63644085638225 L377.6365784276277 501.27728001587093 L239.58364610560238 503.1811635326594" stroke="none" stroke-width="0" fill="#ffd8a8"></path><path d="M238.97379289381206 429.95677720196545 C265.78113073669374 430.18674482200294, 298.8312492650002 430.1856561431661, 379.90200380794704 430.62581341154873 M240.5004137987271 431.4744783556089 C269.82416126225144 428.62621379941703, 298.7060380363837 429.99898342341186, 381.10964255873114 432.0559525107965 M378.76409153454006 432.46246378310025 C380.18152099018914 447.39523315243423, 379.50747977858407 468.30034024454653, 378.9554078411311 502.49189923889935 M380.3791411453858 430.0222289180383 C378.8238056465052 454.5167678995058, 380.14810566743836 474.6139289131388, 378.82881733123213 501.8413959061727 M382.3006040882319 503.45994304306805 C336.6666190829128 500.5697190253064, 296.664452848956 501.7479630796239, 241.17122451774776 502.1786962021142 M379.9650380248204 500.8504961049184 C328.4689958849922 499.55949850939214, 275.06410307530314 500.26035689376295, 240.85614430252463 500.44162716623396 M242.2734550666064 502.9495201576501 C239.40504531124606 483.3615127559751, 239.74252830008044 467.00719561614096, 239.4251252245158 431.2197126019746 M240.48384296242148 501.5836390471086 C240.8717664484866 478.9314007787034, 240.6421781484969 455.88294421043247, 239.02771356049925 430.26127885933965" stroke="#1e1e1e" stroke-width="2" fill="none"></path></g><text x="310" y="461" font-family="Caveat, 'Comic Sans MS', 'Comic Sans', cursive" font-size="17" fill="#1e1e1e" text-anchor="middle" font-weight="700">worktree</text><text x="310" y="483" font-family="Caveat, 'Comic Sans MS', 'Comic Sans', cursive" font-size="15" fill="#444" text-anchor="middle">hotfix/x</text><g><path d="M380.22905379086734 466.655538956821 C388.7221086015925 467.92630960181356, 400.96175307296215 465.95296465590593, 430.0256213739514 467.5693420097232 M380.6053377471864 465.45839443579314 C395.49578313399104 465.9786800017953, 411.0215152334422 465.2999895444512, 429.2785028539598 465.8112634934485" stroke="#1e1e1e" stroke-width="2.4" fill="none"></path></g><g><path d="M429.7216637230478 465.9295752414502 C427.65277710961686 467.3938834668663, 424.8097044649733 468.0121979672598, 418.5323341957413 471.41594011951446 M429.7101021517534 466.19096728744915 C425.97544062805844 467.67181516204255, 422.04224021103414 469.60023439538236, 417.9731139172454 471.14387684283054" stroke="#1e1e1e" stroke-width="2.4" fill="none"></path></g><g><path d="M429.3502743435558 465.5928377816919 C428.1920978043193 464.9444624163283, 425.27085159303715 463.8017784862252, 417.62441593237486 460.29167737825566 M429.8242858437123 465.95196183535734 C425.5387854573507 463.97904814368144, 421.88739017829096 462.13057817254867, 418.10949227412965 460.4617702221244" stroke="#1e1e1e" stroke-width="2.4" fill="none"></path></g><g><path d="M427.8832504968159 398.38473179982975 L808.3887095819227 397.4002289925702 L810.4537003557198 546.5698709492572 L428.24059159262106 547.5967674111016" stroke="none" stroke-width="0" fill="#e9ecef"></path><path d="M428.52734605346467 394.5970967939269 C506.32979490946457 390.59801374357335, 582.5805270585925 391.4272892468623, 810.8459357918598 394.5698588621129 M430.56370212774146 395.7331582087457 C516.4357840743436 396.9062687343808, 602.4618470331112 395.80276801408286, 809.4805481116211 396.44814606288185 M808.1849718396552 397.7756719957106 C805.8949859054992 434.11375317396596, 806.0853645565221 474.1107465340756, 808.1935925339349 543.9052055696957 M809.5012382825371 395.2731363477651 C813.0410544608021 452.94909908925183, 813.1447688151384 512.4130259363446, 810.5874133890029 546.0317005591933 M810.6699078308105 545.8159010547843 C688.0014538181521 546.4940482562931, 569.6929913429453 543.7935762350821, 430.58002881992087 544.9046663990799 M810.021451103201 546.5524526136063 C676.7813715746513 547.3612425171867, 543.9171326201873 547.5781411881824, 430.4678598785473 546.4463223574434 M428.8726999168284 545.0976852248423 C428.1923964343732 496.5060148634948, 426.36433769983705 444.8421470648609, 427.66487564193085 397.2121116439812 M429.50628910562955 546.5814178439323 C432.76933991524857 500.9086056102533, 433.1723196542589 459.0965876823757, 430.8286392723676 395.24631645553745" stroke="#1e1e1e" stroke-width="2.6" fill="none"></path></g><text x="446" y="422" font-family="Caveat, 'Comic Sans MS', 'Comic Sans', cursive" font-size="18" fill="#1e1e1e" text-anchor="start" font-weight="700">host  wt-hotfix</text><text x="446" y="443" font-family="Caveat, 'Comic Sans MS', 'Comic Sans', cursive" font-size="13" fill="#777" text-anchor="start">docker context · colima-wt-hotfix</text><g><path d="M444.5769191097468 453.2623465884477 L533.9321709584444 455.02433507330716 L530.4783236097544 484.75896645672617 L447.66983263008296 484.8908867347985" stroke="none" stroke-width="0" fill="#a5d8ff"></path><path d="M446.98291733153167 455.2025103639811 C464.8945391237736 455.1376425265111, 481.5604322325438 453.17134476888555, 530.1678551066667 454.53385390751066 M445.0132999038324 454.99965789262205 C467.037469866313 455.6345254483648, 487.7022013140842 455.589282965941, 531.6996620213613 454.3854331308976 M529.8931498873978 455.8382145833224 C533.8528823438473 464.2626476444304, 530.3811050358602 469.47110894955694, 534.13996395953 483.40029047243297 M532.9885351693258 453.58115852419286 C532.1344044488856 460.83448702972385, 531.1515576940961 468.5043249728158, 531.8644883131608 483.31536458674816 M531.9406951416283 485.69518154375254 C504.66273891106243 483.35307708922846, 476.4191565360874 483.1941775554798, 446.6708820927888 484.1495010089129 M532.0936950182543 483.55222614947706 C504.5068565772846 484.1666760411583, 475.3023642895743 484.1862097885929, 446.61909636612984 483.6006894523278 M446.4153113950044 485.0963482569903 C444.54731159098077 477.97946586459875, 445.4329431880228 471.40986855216323, 446.7960709322244 455.93996940366924 M446.9052870189771 484.50969304386524 C446.42484117057546 475.7392122408375, 445.1361232152246 467.512401519902, 446.1140171861276 453.323591565527" stroke="#1e1e1e" stroke-width="1.8" fill="none"></path></g><text x="489" y="475" font-family="Caveat, 'Comic Sans MS', 'Comic Sans', cursive" font-size="17" fill="#1e1e1e" text-anchor="middle">postgres</text><g><path d="M541.0165777822956 454.8261291930452 L628.882277484797 454.81646863315257 L628.9573909064754 485.0164464781061 L542.4879446586594 484.3766181478277" stroke="none" stroke-width="0" fill="#ffc9c9"></path><path d="M541.7259071240202 454.06278357710687 C558.3431965380906 455.27313273355253, 574.7450694253668 454.52416511580236, 627.4949009845034 452.76542296018454 M541.3997677843087 454.1907163624652 C564.2571303625591 453.5334304995183, 588.5697582720778 452.86154814132493, 628.1612503062003 454.1135305915959 M629.7835245558992 456.1138378104195 C629.1103620867077 463.9410007823259, 626.3992742578332 470.9163775222376, 629.4695664891973 484.64400004353377 M628.2159806500189 453.80195706235247 C626.9840746622924 463.04023036425934, 627.1271125208978 473.73811412835494, 627.2120528439991 484.8028326814063 M626.8987769136205 483.2603973766789 C598.2483771193772 485.3265203908485, 570.0715378491208 484.5697437063258, 542.4909843513742 485.90562518443915 M628.1559257964603 484.4941209380515 C601.381713718269 484.8328663591754, 575.2209151647054 484.55378929120417, 542.5519410560839 484.74671822534873 M543.8226468631998 482.5867335161194 C539.8608656028714 475.8939674071968, 543.2408204833474 464.19930520299823, 541.2470512995496 452.41328056063503 M542.0450396250002 484.5077383850701 C542.8492744194846 477.2068917515688, 542.1172163384538 469.79588629314674, 541.4988318125718 453.31042465018106" stroke="#1e1e1e" stroke-width="1.8" fill="none"></path></g><text x="585" y="475" font-family="Caveat, 'Comic Sans MS', 'Comic Sans', cursive" font-size="17" fill="#1e1e1e" text-anchor="middle">redis</text><g><path d="M445.4562364548445 491.9899117976427 L531.8323840111494 494.6086021929979 L531.0364582031965 525.2739264994859 L445.3060566872358 523.8623495608568" stroke="none" stroke-width="0" fill="#b2f2bb"></path><path d="M444.4688969165087 492.92305679023264 C464.1918539524078 492.759822940594, 480.32970661818985 493.22818546271924, 532.8219468623399 495.3969920128584 M445.7862356647849 493.3817748323083 C471.6767908588052 494.08113555067183, 495.23731523007154 492.7826133167088, 532.6228385910392 493.84162805229425 M533.2738992244006 491.9894610375166 C532.3678418295682 503.61935392022133, 530.4174434798063 512.3616460949182, 532.7991690188646 525.8877096146346 M531.443426130712 494.022755600512 C532.9577448756993 505.24597369879484, 532.0266673476993 516.7719032838941, 532.7596173748374 524.0903007760644 M529.8568586856127 525.2256132096052 C499.834015327692 522.8999636924684, 467.3239191621542 521.5453098571718, 446.3110866099596 523.2617493599653 M532.2181565746665 523.236015726626 C508.4565708592534 522.8502566771924, 485.3394660398364 524.4725687938154, 446.48478574603797 523.6927469983697 M444.8299823313952 524.4771187752485 C447.57441961476206 513.8084689497948, 444.648697778672 501.3887418538332, 448.0980316668749 493.2865917176008 M445.1847922310233 524.505783726275 C445.07370766839387 512.6745712623, 444.898309461683 500.07937106639145, 447.08364643901587 493.29725773483517" stroke="#1e1e1e" stroke-width="1.8" fill="none"></path></g><text x="489" y="515" font-family="Caveat, 'Comic Sans MS', 'Comic Sans', cursive" font-size="17" fill="#1e1e1e" text-anchor="middle">api</text><g><path d="M541.8958951273933 493.55369440224024 L626.7824905375019 494.40073575284333 L629.5155254999175 525.5314065208659 L540.1241687158123 523.348080973886" stroke="none" stroke-width="0" fill="#ffec99"></path><path d="M543.6118867089972 496.18333000335844 C557.640511366725 492.89531314763536, 577.9143438110128 494.58100580963605, 630.1489927401766 493.62856106553227 M542.1727035452611 494.7728333021514 C568.8964513550512 494.62884060182535, 596.1048721880652 494.90367849209275, 629.0844268758781 493.5697255129926 M628.7642738929019 492.2650842646137 C626.7013215724286 503.29770705811677, 625.5116127017793 513.8069146675989, 628.128771548532 522.7314191857353 M628.8708716114052 494.2435541386716 C627.8074150891063 501.45171703333034, 628.0022221745011 510.0056924394332, 628.1071819056757 523.3777688707225 M629.2149404576048 522.7908290425315 C593.4196535360068 524.8734069940883, 560.9763004751876 522.9208760080177, 542.131188868545 525.0178735354915 M628.2803873528726 524.1779105152003 C605.3314280002378 525.7164469952095, 585.2580169149674 524.8401482964266, 542.417630435992 524.8387757713906 M542.2373177995905 521.9675040343776 C542.8879736266528 517.7229704923927, 542.4565750739965 506.17817850466815, 542.5490120342001 494.1599028745666 M542.5245448370464 524.5038290674798 C541.4981409173031 514.1422507730313, 541.8794025849123 502.36285583963615, 542.46846106546 493.2840908194892" stroke="#1e1e1e" stroke-width="1.8" fill="none"></path></g><text x="585" y="515" font-family="Caveat, 'Comic Sans MS', 'Comic Sans', cursive" font-size="17" fill="#1e1e1e" text-anchor="middle">ui</text><text x="446" y="536" font-family="Caveat, 'Comic Sans MS', 'Comic Sans', cursive" font-size="15" fill="#2b6a36" text-anchor="start" font-weight="700">ui :30001 · api :38003 · pg :35432</text><g><path d="M810.2290537908673 466.655538956821 C813.9215691311285 467.69896981154085, 821.3606741320342 465.7256248656332, 836.0256213739515 467.5693420097232 M810.6053377471865 465.45839443579314 C818.1335561120883 466.01521655453445, 826.2970611896366 465.33652609719036, 835.2785028539598 465.8112634934485" stroke="#D97757" stroke-width="2.4" fill="none"></path></g><g><path d="M835.7216637230479 465.9295752414502 C833.652777109617 467.3938834668663, 830.8097044649733 468.0121979672598, 824.5323341957413 471.41594011951446 M835.7101021517534 466.19096728744915 C831.9754406280584 467.67181516204255, 828.042240211034 469.60023439538236, 823.9731139172454 471.14387684283054" stroke="#D97757" stroke-width="2.4" fill="none"></path></g><g><path d="M835.3502743435558 465.5928377816919 C834.1920978043194 464.9444624163283, 831.2708515930373 463.8017784862252, 823.6244159323749 460.29167737825566 M835.8242858437122 465.95196183535734 C831.5387854573507 463.97904814368144, 827.8873901782911 462.13057817254867, 824.1094922741296 460.4617702221244" stroke="#D97757" stroke-width="2.4" fill="none"></path></g><g><path d="M838.3813111362979 419.26986023504287 L1046.42340575438 418.2191696735099 L1043.5393099961802 526.0328256161883 L839.5253190277144 522.6747868033126" stroke="none" stroke-width="0" fill="#fff"></path><path d="M838.3588983814001 419.05543056148264 C879.6561831634291 423.31457903483346, 919.4117106790338 421.8006363219455, 1043.0655671956783 415.83587858376853 M838.5655086171729 417.9634825508814 C906.1510042022185 420.86254350533454, 974.8483360944111 420.50675448396663, 1043.3386034316272 417.28986507378323 M1044.2893733652309 416.34171305876225 C1041.2989272428956 453.77854411099105, 1045.8114052070584 493.30715964045373, 1043.3845159979537 523.9717372236773 M1044.1117239682935 418.5276734963991 C1041.5787208289933 452.6397380028851, 1043.079506850345 486.96647698218004, 1043.3803936778568 524.9832238242961 M1044.1749831219836 524.7646132694941 C963.9282993158308 521.893397779308, 879.6273026789228 523.763951403338, 837.950739100618 522.35556993144 M1044.3465010846526 522.9075632608834 C996.8976191685263 523.7765972637059, 950.1633610946424 524.813305286373, 838.3544471242712 523.782365695187 M839.8689241679385 523.8385105608031 C839.4595200010482 483.3472995089367, 841.8037526496593 448.25445252414795, 836.8636277290061 419.1741068540141 M837.6185198216699 524.5703118280508 C838.8994188889955 491.99582062931734, 839.965238823006 457.0671867647208, 837.8332678317092 417.17150443652645" stroke="#1e1e1e" stroke-width="2" fill="none"></path></g><g><path d="M841.7539635347202 444.9737844808027 C882.423941591382 445.1744470531039, 921.7591465843841 445.09817967358157, 1040.1099321352317 445.13409977387636 M842.2579016289674 444.76953188413756 C912.5696771481074 444.5591332592875, 982.7489292259329 444.8922854789406, 1039.9475282124245 444.7343419366516" stroke="#bbb" stroke-width="1.4" fill="none"></path></g><circle cx="853" cy="432" r="4.5" fill="#ff6b6b"></circle><circle cx="869" cy="432" r="4.5" fill="#ffd43b"></circle><circle cx="885" cy="432" r="4.5" fill="#51cf66"></circle><rect x="900" y="423" width="136" height="18" rx="9" fill="#f1f3f5" stroke="#d6d6d6" stroke-width="1"></rect><text x="910" y="437" font-family="Caveat, 'Comic Sans MS', 'Comic Sans', cursive" font-size="13" fill="#333" text-anchor="start">http://wt-hotfix</text><text x="941" y="508" font-family="Caveat, 'Comic Sans MS', 'Comic Sans', cursive" font-size="13" fill="#aaa" text-anchor="middle" font-style="italic">your app</text><g><path d="M46.34485115855932 588.3102748170495 L1016.2756937965751 588.0152544751763 L1015.3487712368369 681.5363733544946 L44.278194807469845 680.7415513768792" stroke="none" stroke-width="0" fill="#fff"></path><path d="M44.45268954336643 589.7769478410482 C239.19711954295636 589.2085064565539, 437.27103257477285 590.5412591611743, 1016.2810686975718 589.4671004861593 M43.76688735932112 590.4197217896581 C375.6060595497489 592.3742851538658, 706.2095673725009 592.439762286663, 1016.4251426979899 590.0631746724248 M1016.8521220460534 587.7832850441337 C1018.4535409979522 606.1139397189021, 1014.2214860491455 629.0743780240416, 1013.7738771215081 679.8225323185325 M1016.0888548605144 589.1129718907177 C1017.243311651051 624.1549993343651, 1016.5090450122952 655.8338561542332, 1015.6884231083095 681.8718612082303 M1015.5603221803904 682.3119696229696 C753.6268085092306 687.1818680730462, 493.36359818279743 686.4769315686822, 44.291319742798805 682.2953046411276 M1015.8146869465709 681.7535979226232 C661.1130652055144 687.5957174044847, 306.0600564405322 687.3028418761492, 44.289943628013134 681.8688678219914 M46.19794008880854 683.7660268768668 C43.02025733724236 650.5266881391406, 46.80356798902154 624.9322697505355, 42.40016696602106 589.4596168026328 M44.228457283228636 682.3615187294781 C46.33833843290806 653.0820427365601, 44.36555403292179 626.6076090104877, 43.120284747332335 590.2650384791195" stroke="#D97757" stroke-width="2" fill="none"></path></g><text x="64" y="622" font-family="Caveat, 'Comic Sans MS', 'Comic Sans', cursive" font-size="20" fill="#D97757" text-anchor="start" font-weight="700">It's a different HOST, not a different port.</text><text x="64" y="648" font-family="Caveat, 'Comic Sans MS', 'Comic Sans', cursive" font-size="15" fill="#555" text-anchor="start">Inside every VM the stack owns the stock ports, so localhost = the stack and every existing test passes unmodified.</text><text x="64" y="672" font-family="Caveat, 'Comic Sans MS', 'Comic Sans', cursive" font-size="14" fill="#888" text-anchor="start" font-style="italic">Each VM is its own addressable host — surface its UI to your browser with  vmoat tunnel ui.</text></svg>